<mxfile host="Electron" modified="2024-04-08T15:17:24.345Z" agent="Mozilla/5.0 (Windows NT 10.0; Win64; x64) AppleWebKit/537.36 (KHTML, like Gecko) draw.io/21.2.8 Chrome/112.0.5615.165 Electron/24.2.0 Safari/537.36" etag="rCVfu9-Rbq-aUdB0YXYt" version="21.2.8" type="device">
  <diagram name="第 1 页" id="jPFsZ-wn6OdbeIY43XCs">
    <mxGraphModel dx="1690" dy="1674" grid="1" gridSize="10" guides="1" tooltips="1" connect="1" arrows="1" fold="1" page="1" pageScale="1" pageWidth="827" pageHeight="1169" math="0" shadow="0">
      <root>
        <mxCell id="0" />
        <mxCell id="1" parent="0" />
        <mxCell id="0yXQTPuULQUDAwn3RkB3-1" value="4" style="ellipse;whiteSpace=wrap;html=1;aspect=fixed;" parent="1" vertex="1">
          <mxGeometry x="-10" y="70" width="30" height="30" as="geometry" />
        </mxCell>
        <mxCell id="mLOVz62an3wNBtqcFb8n-41" value="" style="edgeStyle=orthogonalEdgeStyle;rounded=0;orthogonalLoop=1;jettySize=auto;html=1;" edge="1" parent="1" source="0yXQTPuULQUDAwn3RkB3-2" target="mLOVz62an3wNBtqcFb8n-37">
          <mxGeometry relative="1" as="geometry" />
        </mxCell>
        <mxCell id="0yXQTPuULQUDAwn3RkB3-2" value="3" style="ellipse;whiteSpace=wrap;html=1;aspect=fixed;" parent="1" vertex="1">
          <mxGeometry x="20" y="40" width="30" height="30" as="geometry" />
        </mxCell>
        <mxCell id="0yXQTPuULQUDAwn3RkB3-3" value="" style="endArrow=classic;html=1;rounded=0;entryX=0;entryY=0.5;entryDx=0;entryDy=0;exitX=1;exitY=0.5;exitDx=0;exitDy=0;" parent="1" source="0yXQTPuULQUDAwn3RkB3-1" target="0yXQTPuULQUDAwn3RkB3-2" edge="1">
          <mxGeometry width="50" height="50" relative="1" as="geometry">
            <mxPoint x="40" y="180" as="sourcePoint" />
            <mxPoint x="90" y="130" as="targetPoint" />
          </mxGeometry>
        </mxCell>
        <mxCell id="0yXQTPuULQUDAwn3RkB3-4" value="p[index][2]=1" style="rounded=0;whiteSpace=wrap;html=1;" parent="1" vertex="1">
          <mxGeometry x="290" y="90" width="120" height="40" as="geometry" />
        </mxCell>
        <mxCell id="0yXQTPuULQUDAwn3RkB3-5" value="" style="rounded=0;whiteSpace=wrap;html=1;" parent="1" vertex="1">
          <mxGeometry x="290" y="130" width="120" height="40" as="geometry" />
        </mxCell>
        <mxCell id="0yXQTPuULQUDAwn3RkB3-6" value="p[index][i=0]=19" style="rounded=0;whiteSpace=wrap;html=1;" parent="1" vertex="1">
          <mxGeometry x="290" y="10" width="120" height="40" as="geometry" />
        </mxCell>
        <mxCell id="0yXQTPuULQUDAwn3RkB3-7" value="p[index][i=1]=3" style="rounded=0;whiteSpace=wrap;html=1;" parent="1" vertex="1">
          <mxGeometry x="290" y="50" width="120" height="40" as="geometry" />
        </mxCell>
        <mxCell id="0yXQTPuULQUDAwn3RkB3-8" value="" style="rounded=0;whiteSpace=wrap;html=1;" parent="1" vertex="1">
          <mxGeometry x="290" y="170" width="120" height="40" as="geometry" />
        </mxCell>
        <mxCell id="0yXQTPuULQUDAwn3RkB3-9" value="" style="rounded=0;whiteSpace=wrap;html=1;" parent="1" vertex="1">
          <mxGeometry x="290" y="210" width="120" height="40" as="geometry" />
        </mxCell>
        <mxCell id="mLOVz62an3wNBtqcFb8n-44" value="" style="edgeStyle=orthogonalEdgeStyle;rounded=0;orthogonalLoop=1;jettySize=auto;html=1;" edge="1" parent="1" source="mLOVz62an3wNBtqcFb8n-37" target="mLOVz62an3wNBtqcFb8n-43">
          <mxGeometry relative="1" as="geometry" />
        </mxCell>
        <mxCell id="mLOVz62an3wNBtqcFb8n-37" value="2" style="ellipse;whiteSpace=wrap;html=1;aspect=fixed;" vertex="1" parent="1">
          <mxGeometry x="50" y="-10" width="30" height="30" as="geometry" />
        </mxCell>
        <mxCell id="mLOVz62an3wNBtqcFb8n-43" value="1" style="ellipse;whiteSpace=wrap;html=1;aspect=fixed;" vertex="1" parent="1">
          <mxGeometry x="90" y="-60" width="30" height="30" as="geometry" />
        </mxCell>
        <mxCell id="mLOVz62an3wNBtqcFb8n-46" value="" style="edgeStyle=orthogonalEdgeStyle;rounded=0;orthogonalLoop=1;jettySize=auto;html=1;" edge="1" parent="1" source="mLOVz62an3wNBtqcFb8n-45" target="0yXQTPuULQUDAwn3RkB3-1">
          <mxGeometry relative="1" as="geometry" />
        </mxCell>
        <mxCell id="mLOVz62an3wNBtqcFb8n-45" value="5" style="ellipse;whiteSpace=wrap;html=1;aspect=fixed;" vertex="1" parent="1">
          <mxGeometry x="-10" y="120" width="30" height="30" as="geometry" />
        </mxCell>
        <mxCell id="mLOVz62an3wNBtqcFb8n-47" value="parent[u=4][2]=1" style="rounded=0;whiteSpace=wrap;html=1;" vertex="1" parent="1">
          <mxGeometry x="400" y="90" width="120" height="40" as="geometry" />
        </mxCell>
        <mxCell id="mLOVz62an3wNBtqcFb8n-48" value="" style="rounded=0;whiteSpace=wrap;html=1;" vertex="1" parent="1">
          <mxGeometry x="400" y="130" width="120" height="40" as="geometry" />
        </mxCell>
        <mxCell id="mLOVz62an3wNBtqcFb8n-49" value="parent[u=19][0]=18" style="rounded=0;whiteSpace=wrap;html=1;" vertex="1" parent="1">
          <mxGeometry x="400" y="10" width="120" height="40" as="geometry" />
        </mxCell>
        <mxCell id="mLOVz62an3wNBtqcFb8n-50" value="parent[u=4][1]=2" style="rounded=0;whiteSpace=wrap;html=1;" vertex="1" parent="1">
          <mxGeometry x="400" y="50" width="120" height="40" as="geometry" />
        </mxCell>
        <mxCell id="mLOVz62an3wNBtqcFb8n-51" value="" style="rounded=0;whiteSpace=wrap;html=1;" vertex="1" parent="1">
          <mxGeometry x="400" y="170" width="120" height="40" as="geometry" />
        </mxCell>
        <mxCell id="mLOVz62an3wNBtqcFb8n-52" value="" style="rounded=0;whiteSpace=wrap;html=1;" vertex="1" parent="1">
          <mxGeometry x="400" y="210" width="120" height="40" as="geometry" />
        </mxCell>
        <mxCell id="mLOVz62an3wNBtqcFb8n-53" value="20" style="rounded=0;whiteSpace=wrap;html=1;" vertex="1" parent="1">
          <mxGeometry x="290" y="-20" width="110" height="30" as="geometry" />
        </mxCell>
        <mxCell id="mLOVz62an3wNBtqcFb8n-54" value="19" style="rounded=0;whiteSpace=wrap;html=1;" vertex="1" parent="1">
          <mxGeometry x="400" y="-20" width="120" height="30" as="geometry" />
        </mxCell>
        <mxCell id="mLOVz62an3wNBtqcFb8n-55" value="parent[6][2]=2" style="rounded=0;whiteSpace=wrap;html=1;" vertex="1" parent="1">
          <mxGeometry x="520" y="90" width="120" height="40" as="geometry" />
        </mxCell>
        <mxCell id="mLOVz62an3wNBtqcFb8n-56" value="" style="rounded=0;whiteSpace=wrap;html=1;" vertex="1" parent="1">
          <mxGeometry x="520" y="130" width="120" height="40" as="geometry" />
        </mxCell>
        <mxCell id="mLOVz62an3wNBtqcFb8n-57" value="parent[6][0]=5" style="rounded=0;whiteSpace=wrap;html=1;" vertex="1" parent="1">
          <mxGeometry x="520" y="10" width="120" height="40" as="geometry" />
        </mxCell>
        <mxCell id="mLOVz62an3wNBtqcFb8n-58" value="parent[6][1]=4" style="rounded=0;whiteSpace=wrap;html=1;" vertex="1" parent="1">
          <mxGeometry x="520" y="50" width="120" height="40" as="geometry" />
        </mxCell>
        <mxCell id="mLOVz62an3wNBtqcFb8n-59" value="" style="rounded=0;whiteSpace=wrap;html=1;" vertex="1" parent="1">
          <mxGeometry x="520" y="170" width="120" height="40" as="geometry" />
        </mxCell>
        <mxCell id="mLOVz62an3wNBtqcFb8n-60" value="" style="rounded=0;whiteSpace=wrap;html=1;" vertex="1" parent="1">
          <mxGeometry x="520" y="210" width="120" height="40" as="geometry" />
        </mxCell>
        <mxCell id="mLOVz62an3wNBtqcFb8n-61" value="6" style="rounded=0;whiteSpace=wrap;html=1;" vertex="1" parent="1">
          <mxGeometry x="520" y="-20" width="120" height="30" as="geometry" />
        </mxCell>
        <mxCell id="mLOVz62an3wNBtqcFb8n-62" value="从i=1开始，u=19" style="rounded=0;whiteSpace=wrap;html=1;" vertex="1" parent="1">
          <mxGeometry x="170" y="50" width="120" height="40" as="geometry" />
        </mxCell>
        <mxCell id="mLOVz62an3wNBtqcFb8n-63" value="i=2,u=3" style="rounded=0;whiteSpace=wrap;html=1;" vertex="1" parent="1">
          <mxGeometry x="170" y="90" width="120" height="40" as="geometry" />
        </mxCell>
        <mxCell id="mLOVz62an3wNBtqcFb8n-70" style="edgeStyle=orthogonalEdgeStyle;rounded=0;orthogonalLoop=1;jettySize=auto;html=1;entryX=0.5;entryY=1;entryDx=0;entryDy=0;" edge="1" parent="1" source="mLOVz62an3wNBtqcFb8n-65" target="mLOVz62an3wNBtqcFb8n-66">
          <mxGeometry relative="1" as="geometry" />
        </mxCell>
        <mxCell id="mLOVz62an3wNBtqcFb8n-65" value="20" style="ellipse;whiteSpace=wrap;html=1;aspect=fixed;" vertex="1" parent="1">
          <mxGeometry x="-55" y="230" width="30" height="30" as="geometry" />
        </mxCell>
        <mxCell id="mLOVz62an3wNBtqcFb8n-68" style="edgeStyle=orthogonalEdgeStyle;rounded=0;orthogonalLoop=1;jettySize=auto;html=1;entryX=0.5;entryY=1;entryDx=0;entryDy=0;" edge="1" parent="1" source="mLOVz62an3wNBtqcFb8n-66" target="mLOVz62an3wNBtqcFb8n-45">
          <mxGeometry relative="1" as="geometry" />
        </mxCell>
        <mxCell id="mLOVz62an3wNBtqcFb8n-66" value="此处省略" style="rounded=0;whiteSpace=wrap;html=1;" vertex="1" parent="1">
          <mxGeometry x="-80" y="180" width="80" height="20" as="geometry" />
        </mxCell>
        <mxCell id="mLOVz62an3wNBtqcFb8n-71" value="p[index][2]=1" style="rounded=0;whiteSpace=wrap;html=1;" vertex="1" parent="1">
          <mxGeometry x="640" y="90" width="120" height="40" as="geometry" />
        </mxCell>
        <mxCell id="mLOVz62an3wNBtqcFb8n-72" value="" style="rounded=0;whiteSpace=wrap;html=1;" vertex="1" parent="1">
          <mxGeometry x="640" y="130" width="120" height="40" as="geometry" />
        </mxCell>
        <mxCell id="mLOVz62an3wNBtqcFb8n-73" value="p[index][i=0]=4" style="rounded=0;whiteSpace=wrap;html=1;" vertex="1" parent="1">
          <mxGeometry x="640" y="10" width="120" height="40" as="geometry" />
        </mxCell>
        <mxCell id="mLOVz62an3wNBtqcFb8n-74" value="p[index][i=1]=3" style="rounded=0;whiteSpace=wrap;html=1;" vertex="1" parent="1">
          <mxGeometry x="640" y="50" width="120" height="40" as="geometry" />
        </mxCell>
        <mxCell id="mLOVz62an3wNBtqcFb8n-75" value="" style="rounded=0;whiteSpace=wrap;html=1;" vertex="1" parent="1">
          <mxGeometry x="640" y="170" width="120" height="40" as="geometry" />
        </mxCell>
        <mxCell id="mLOVz62an3wNBtqcFb8n-76" value="" style="rounded=0;whiteSpace=wrap;html=1;" vertex="1" parent="1">
          <mxGeometry x="640" y="210" width="120" height="40" as="geometry" />
        </mxCell>
        <mxCell id="mLOVz62an3wNBtqcFb8n-77" value="parent[4][2]=1" style="rounded=0;whiteSpace=wrap;html=1;" vertex="1" parent="1">
          <mxGeometry x="750" y="90" width="120" height="40" as="geometry" />
        </mxCell>
        <mxCell id="mLOVz62an3wNBtqcFb8n-78" value="" style="rounded=0;whiteSpace=wrap;html=1;" vertex="1" parent="1">
          <mxGeometry x="750" y="130" width="120" height="40" as="geometry" />
        </mxCell>
        <mxCell id="mLOVz62an3wNBtqcFb8n-79" value="parent[4][0]=3" style="rounded=0;whiteSpace=wrap;html=1;" vertex="1" parent="1">
          <mxGeometry x="750" y="10" width="120" height="40" as="geometry" />
        </mxCell>
        <mxCell id="mLOVz62an3wNBtqcFb8n-80" value="parent[4][1]=2" style="rounded=0;whiteSpace=wrap;html=1;" vertex="1" parent="1">
          <mxGeometry x="750" y="50" width="120" height="40" as="geometry" />
        </mxCell>
        <mxCell id="mLOVz62an3wNBtqcFb8n-81" value="" style="rounded=0;whiteSpace=wrap;html=1;" vertex="1" parent="1">
          <mxGeometry x="750" y="170" width="120" height="40" as="geometry" />
        </mxCell>
        <mxCell id="mLOVz62an3wNBtqcFb8n-82" value="" style="rounded=0;whiteSpace=wrap;html=1;" vertex="1" parent="1">
          <mxGeometry x="750" y="210" width="120" height="40" as="geometry" />
        </mxCell>
        <mxCell id="mLOVz62an3wNBtqcFb8n-83" value="5" style="rounded=0;whiteSpace=wrap;html=1;" vertex="1" parent="1">
          <mxGeometry x="640" y="-20" width="110" height="30" as="geometry" />
        </mxCell>
        <mxCell id="mLOVz62an3wNBtqcFb8n-84" value="4" style="rounded=0;whiteSpace=wrap;html=1;" vertex="1" parent="1">
          <mxGeometry x="750" y="-20" width="120" height="30" as="geometry" />
        </mxCell>
        <mxCell id="mLOVz62an3wNBtqcFb8n-85" value="" style="rounded=0;whiteSpace=wrap;html=1;" vertex="1" parent="1">
          <mxGeometry x="870" y="90" width="120" height="40" as="geometry" />
        </mxCell>
        <mxCell id="mLOVz62an3wNBtqcFb8n-86" value="" style="rounded=0;whiteSpace=wrap;html=1;" vertex="1" parent="1">
          <mxGeometry x="870" y="130" width="120" height="40" as="geometry" />
        </mxCell>
        <mxCell id="mLOVz62an3wNBtqcFb8n-87" value="parent[3][0]=2" style="rounded=0;whiteSpace=wrap;html=1;" vertex="1" parent="1">
          <mxGeometry x="870" y="10" width="120" height="40" as="geometry" />
        </mxCell>
        <mxCell id="mLOVz62an3wNBtqcFb8n-88" value="parent[3][1]=1" style="rounded=0;whiteSpace=wrap;html=1;" vertex="1" parent="1">
          <mxGeometry x="870" y="50" width="120" height="40" as="geometry" />
        </mxCell>
        <mxCell id="mLOVz62an3wNBtqcFb8n-89" value="" style="rounded=0;whiteSpace=wrap;html=1;" vertex="1" parent="1">
          <mxGeometry x="870" y="170" width="120" height="40" as="geometry" />
        </mxCell>
        <mxCell id="mLOVz62an3wNBtqcFb8n-90" value="" style="rounded=0;whiteSpace=wrap;html=1;" vertex="1" parent="1">
          <mxGeometry x="870" y="210" width="120" height="40" as="geometry" />
        </mxCell>
        <mxCell id="mLOVz62an3wNBtqcFb8n-91" value="3" style="rounded=0;whiteSpace=wrap;html=1;" vertex="1" parent="1">
          <mxGeometry x="870" y="-20" width="120" height="30" as="geometry" />
        </mxCell>
        <mxCell id="mLOVz62an3wNBtqcFb8n-92" value="" style="rounded=0;whiteSpace=wrap;html=1;" vertex="1" parent="1">
          <mxGeometry x="980" y="90" width="120" height="40" as="geometry" />
        </mxCell>
        <mxCell id="mLOVz62an3wNBtqcFb8n-93" value="" style="rounded=0;whiteSpace=wrap;html=1;" vertex="1" parent="1">
          <mxGeometry x="980" y="130" width="120" height="40" as="geometry" />
        </mxCell>
        <mxCell id="mLOVz62an3wNBtqcFb8n-94" value="parent[u=2][0]=1" style="rounded=0;whiteSpace=wrap;html=1;" vertex="1" parent="1">
          <mxGeometry x="980" y="10" width="120" height="40" as="geometry" />
        </mxCell>
        <mxCell id="mLOVz62an3wNBtqcFb8n-95" value="" style="rounded=0;whiteSpace=wrap;html=1;" vertex="1" parent="1">
          <mxGeometry x="980" y="50" width="120" height="40" as="geometry" />
        </mxCell>
        <mxCell id="mLOVz62an3wNBtqcFb8n-96" value="" style="rounded=0;whiteSpace=wrap;html=1;" vertex="1" parent="1">
          <mxGeometry x="980" y="170" width="120" height="40" as="geometry" />
        </mxCell>
        <mxCell id="mLOVz62an3wNBtqcFb8n-97" value="" style="rounded=0;whiteSpace=wrap;html=1;" vertex="1" parent="1">
          <mxGeometry x="980" y="210" width="120" height="40" as="geometry" />
        </mxCell>
        <mxCell id="mLOVz62an3wNBtqcFb8n-98" value="2" style="rounded=0;whiteSpace=wrap;html=1;" vertex="1" parent="1">
          <mxGeometry x="980" y="-20" width="120" height="30" as="geometry" />
        </mxCell>
        <mxCell id="mLOVz62an3wNBtqcFb8n-99" value="" style="rounded=0;whiteSpace=wrap;html=1;" vertex="1" parent="1">
          <mxGeometry x="1100" y="90" width="120" height="40" as="geometry" />
        </mxCell>
        <mxCell id="mLOVz62an3wNBtqcFb8n-100" value="" style="rounded=0;whiteSpace=wrap;html=1;" vertex="1" parent="1">
          <mxGeometry x="1100" y="130" width="120" height="40" as="geometry" />
        </mxCell>
        <mxCell id="mLOVz62an3wNBtqcFb8n-101" value="parent[u=3][0]=0" style="rounded=0;whiteSpace=wrap;html=1;" vertex="1" parent="1">
          <mxGeometry x="1100" y="10" width="120" height="40" as="geometry" />
        </mxCell>
        <mxCell id="mLOVz62an3wNBtqcFb8n-102" value="" style="rounded=0;whiteSpace=wrap;html=1;" vertex="1" parent="1">
          <mxGeometry x="1100" y="50" width="120" height="40" as="geometry" />
        </mxCell>
        <mxCell id="mLOVz62an3wNBtqcFb8n-103" value="" style="rounded=0;whiteSpace=wrap;html=1;" vertex="1" parent="1">
          <mxGeometry x="1100" y="170" width="120" height="40" as="geometry" />
        </mxCell>
        <mxCell id="mLOVz62an3wNBtqcFb8n-104" value="" style="rounded=0;whiteSpace=wrap;html=1;" vertex="1" parent="1">
          <mxGeometry x="1100" y="210" width="120" height="40" as="geometry" />
        </mxCell>
        <mxCell id="mLOVz62an3wNBtqcFb8n-105" value="1" style="rounded=0;whiteSpace=wrap;html=1;" vertex="1" parent="1">
          <mxGeometry x="1100" y="-20" width="120" height="30" as="geometry" />
        </mxCell>
      </root>
    </mxGraphModel>
  </diagram>
</mxfile>
